# xmcd
#
# Track frame offsets:
#	150
#	11971
#	24889
#	43484
#	57955
#	73642
#	86564
#	97052
#	112706
#	127933
#	140881
#	154534
#	171382
#	188266
#	201405
#	211484
#
# Disc length: 3027
#
# Revision: 1
# Processed by: cddbd v1.5.1PL0 Copyright (c) Steve Scherf et al.
# Submitted via: CDex 1.50Beta7
# Normalized: r0:DSETVAR1,TDELIM( - )
#
DISCID=e10bd110
DTITLE=Various Artist - Country Classics
DYEAR=2002
DGENRE=Country
TTITLE0=Ennio Morricone - The good, the bad and ugly
TTITLE1=Dr. Hook - A little bit more
TTITLE2=Juice Newton - Angle of the morning
TTITLE3=John Denver - Take me home, country roads
TTITLE4=Kenny Rogers - Green green grass of home
TTITLE5=Bobby Bare - Detroit City
TTITLE6=Glen Campbell - Help me make it through the night
TTITLE7=The Dirt Band Feat. Linda Rondstadt - An American Dream
TTITLE8=Nitty Gritty Dirt Band - Jambalaya (on the bayou)
TTITLE9=Billy Jo Spears - I love you because
TTITLE10=John Denver - Thank God I'm a country boy
TTITLE11=Roy Acuff and The Nitty Gritty Dirt Band - I saw the light
TTITLE12=Tanya Tucker - Love me like you used to do
TTITLE13=Dr. Hook - When you're in love with a beautiful woman
TTITLE14=Glen Campbell - My Special Angel
TTITLE15=Kenny Rogers - Unchained melody
EXTD=YEAR: 2002
EXTT0=
EXTT1=
EXTT2=
EXTT3=
EXTT4=
EXTT5=
EXTT6=
EXTT7=
EXTT8=
EXTT9=
EXTT10=
EXTT11=
EXTT12=
EXTT13=
EXTT14=
EXTT15=
PLAYORDER=
